####
#
# OBJ File Generated by Meshlab
#
####
# Object cactus.obj
#
# Vertices: 109
# Faces: 214
#
####
g cactus

vn -2.038153 0.912737 5.639323
v 0.028647 0.488035 -0.153879
vn 2.007920 -2.464036 3.230039
v 0.044205 0.002427 0.072458
vn -0.467980 2.228143 3.811243
v 0.044357 0.639505 0.237119
vn 4.318989 1.619519 -2.324616
v 0.089907 0.827049 -0.228068
vn -2.677198 -0.844298 4.836081
v 0.023713 0.403480 0.227520
vn 1.539271 -1.144681 -5.149178
v 0.059500 0.462392 -0.246901
vn -0.899110 3.846730 -3.177892
v -0.015107 0.969336 -0.058384
vn 4.049645 1.163567 3.996971
v 0.058195 0.914783 0.057329
vn -3.650270 -0.722533 3.744375
v -0.137436 0.342648 0.110088
vn -1.479960 1.181215 -5.425863
v -0.021672 0.916809 -0.084524
vn -5.003595 1.546238 2.084741
v -0.076702 0.923052 0.031097
vn -5.860168 -1.020621 1.164327
v -0.083342 0.178667 0.024977
vn 3.089979 -2.632207 1.661774
v 0.076073 0.000146 0.037284
vn 5.380982 0.664109 1.433477
v -0.078226 0.353126 0.092932
vn -4.510122 0.006777 -3.891904
v -0.037685 0.339654 -0.079713
vn 4.820914 0.476552 -2.532419
v 0.087513 0.382178 0.145615
vn -2.502965 -0.716069 -4.909578
v 0.022188 0.470518 -0.244630
vn 3.943634 -2.157922 2.296405
v 0.080685 0.323621 0.179303
vn 1.290616 -1.060085 5.269671
v 0.057306 0.406966 0.232985
vn -4.960219 -0.355109 -1.266654
v -0.149216 0.353507 0.075740
vn -2.501452 2.019800 -2.984577
v 0.015660 0.635092 0.147900
vn 0.667407 3.678825 0.272231
v 0.061442 0.670013 0.193732
vn -2.096030 -2.131972 -4.852866
v -0.012894 0.296367 -0.087857
vn -3.788449 1.777241 -3.192531
v -0.063932 0.925128 -0.059017
vn 4.790726 -0.678703 -2.840232
v 0.088760 0.468684 -0.224583
vn 1.030220 -2.501606 -3.222015
v 0.029333 0.001014 -0.085992
vn 1.449893 1.810196 -4.895207
v 0.023336 0.925074 -0.084009
vn -1.323774 -2.321697 -3.586838
v -0.031006 0.005918 -0.085645
vn -4.431402 -1.888023 -2.293808
v -0.023742 0.337359 -0.136439
vn 3.234073 -2.692142 3.550923
v 0.040961 0.236596 0.072649
vn -4.972364 1.817462 -0.666065
v -0.083615 0.926999 -0.011916
vn -5.706013 -0.045809 -1.556296
v -0.084303 0.236299 0.012534
vn 3.173057 -2.768270 -3.369113
v 0.068280 0.381930 -0.202724
vn 4.637170 -0.794219 2.278848
v 0.094079 0.404958 0.205967
vn -5.498420 1.654398 -1.187429
v -0.005777 0.362186 0.142263
vn -0.991371 3.380675 -4.523390
v 0.029448 0.374822 0.112488
vn 3.565048 -2.171746 -2.911523
v 0.066970 0.009502 -0.060005
vn 1.660047 1.755702 4.926142
v 0.027222 0.926208 0.075503
vn 0.631075 3.117990 4.440361
v 0.040408 0.434338 -0.125592
vn 1.529138 2.149532 -3.602990
v 0.064522 0.836809 -0.249696
vn -0.324593 4.107606 2.936386
v -0.005971 0.972608 0.050150
vn 5.400244 1.173312 1.730621
v 0.080779 0.917877 0.019501
vn 0.470439 -6.010519 -0.289245
v 0.022657 -0.014618 -0.013575
vn -0.981809 -2.047788 4.292154
v -0.101707 0.256735 0.102656
vn -0.448354 3.845603 0.394547
v 0.039058 0.868684 -0.196819
vn 3.670618 1.953475 1.032148
v 0.049102 0.321996 0.065748
vn -3.789364 2.126576 0.313977
v -0.001989 0.636131 0.190986
vn 3.584657 -2.427753 -0.452503
v 0.088206 0.002709 -0.012615
vn 2.657782 0.624034 5.341347
v 0.066321 0.486294 -0.154735
vn 4.001877 1.847772 -0.920714
v 0.044400 0.374252 -0.074451
vn 3.012589 1.566378 4.088914
v 0.075767 0.628294 0.229028
vn 0.852335 4.939047 -1.257017
v 0.010065 0.985328 -0.026268
vn 5.488360 -0.500851 -2.099102
v 0.060928 0.329370 -0.060441
vn -4.928969 0.671349 -3.165546
v 0.004979 0.431424 0.158116
vn -4.814242 0.034441 -3.696111
v -0.067720 0.256284 -0.056862
vn 0.776587 2.217886 -4.004417
v 0.059372 0.636570 0.138961
vn 3.887762 0.524116 -4.181308
v -0.091846 0.366224 0.056981
vn -3.159746 1.941490 2.861730
v -0.014579 0.315634 0.080470
vn 0.363476 -4.200985 -2.586564
v 0.030051 0.306195 -0.145065
vn -1.795919 -2.383136 -4.123590
v 0.017883 0.381756 -0.213613
vn 5.376219 1.698089 -0.618222
v 0.082102 0.927927 -0.017879
vn 5.740505 0.071383 -2.082527
v 0.080081 0.252784 -0.033635
vn 3.881833 2.283450 -2.536047
v 0.072150 0.934963 -0.044936
vn 5.931475 0.059711 1.116713
v 0.084997 0.250213 0.013633
vn -4.225073 2.031874 1.281500
v -0.001026 0.831390 -0.186314
vn 2.994626 3.840154 1.364401
v 0.054610 0.967641 0.021616
vn 2.790540 -2.699006 -3.897906
v 0.032520 0.291103 -0.083801
vn -2.887260 4.373623 0.078545
v -0.047216 0.973953 0.000158
vn -4.975048 1.347209 -1.790471
v -0.001056 0.820167 -0.220180
vn -2.900781 1.591897 -2.077434
v -0.142611 0.562204 0.065354
vn 0.782995 1.438506 4.604367
v -0.109214 0.556247 0.120268
vn -0.017421 -0.439989 5.826883
v -0.043758 0.228335 0.070382
vn -2.100299 -2.312276 3.441563
v -0.045009 0.004127 0.072410
vn 3.232049 2.154411 1.008275
v 0.094300 0.841152 -0.187481
vn 3.902091 1.823354 -2.775141
v 0.087300 0.629509 0.155752
vn -1.595109 -2.446269 4.855400
v -0.003877 0.236566 0.084161
vn -2.930745 -2.483702 1.011303
v -0.082209 -0.003904 0.025260
vn -3.526825 1.095895 2.850981
v -0.140623 0.550190 0.111008
vn -5.228571 1.493419 2.673503
v 0.001851 0.457276 -0.171031
vn -3.739717 -1.188000 4.623343
v -0.059897 0.177132 0.060475
vn -2.770864 -2.365124 -1.444563
v -0.079322 -0.002308 -0.042838
vn 0.101444 -2.675007 3.300931
v 0.004485 -0.001775 0.082824
vn -3.583086 1.376449 3.804442
v 0.015557 0.624226 0.225551
vn -0.997978 0.974906 5.608910
v -0.015898 0.911483 0.079984
vn -1.859883 2.087416 -3.215572
v 0.022831 0.838549 -0.247915
vn -3.871779 -0.369314 4.505684
v -0.033778 0.274926 0.074968
vn 5.219003 -0.463217 0.655680
v 0.093399 0.426620 -0.178499
vn -0.013271 2.232987 0.278954
v -0.115168 0.596893 0.093083
vn 3.845129 0.602047 -4.685008
v 0.054696 0.911513 -0.066425
vn -1.131438 1.786206 0.576391
v -0.068137 0.294838 0.046956
vn -4.724402 -0.843543 2.658952
v -0.003023 0.354630 0.188468
vn 1.453455 1.649487 4.356771
v 0.063665 0.826554 -0.154598
vn 4.575307 -3.050647 -0.698600
v 0.066755 0.324127 -0.121819
vn -1.692038 0.868450 -5.637451
v -0.116964 0.325793 0.048799
vn 4.070422 1.322502 1.133808
v -0.080441 0.553635 0.098102
vn 4.611579 1.584844 0.822357
v 0.098898 0.627378 0.197058
vn -3.123038 2.029196 3.745366
v -0.054323 0.932801 0.059865
vn 1.677431 1.369632 -3.158123
v -0.097300 0.556165 0.052173
vn -2.829725 -3.444054 2.941758
v -0.002336 0.258708 0.128463
vn -2.141884 1.841844 4.170966
v 0.021091 0.828616 -0.159607
vn -5.430892 -0.185649 -1.781206
v -0.003891 0.469864 -0.212181
vn 2.147549 -3.756255 1.803888
v 0.051935 0.247438 0.123262
vn -0.604795 -2.848529 4.468598
v 0.033157 0.320684 0.198640
vn -0.523164 0.920681 -5.881413
v 0.042838 0.432087 0.136627
vn -1.375439 2.826688 -2.225542
v 0.010545 0.389474 -0.086864
vn -4.482615 -1.969631 0.317362
v -0.128952 0.259110 0.072189
vn 5.694357 -0.644527 2.019923
v 0.065405 0.263542 0.052042
vn 1.276920 -0.309577 5.127402
v -0.101953 0.340055 0.119383
vn -6.052118 0.045070 -0.983010
v -0.085685 0.240807 -0.013302
# 109 vertices, 0 vertices normals

f 108//108 78//78 9//9
f 76//76 30//30 102//102
f 18//18 103//103 102//102
f 98//98 95//95 14//14
f 46//46 38//38 84//84
f 70//70 98//98 94//94
f 51//51 3//3 19//19
f 21//21 56//56 104//104
f 106//106 20//20 12//12
f 98//98 88//88 95//95
f 53//53 62//62 37//37
f 33//33 87//87 93//93
f 90//90 11//11 32//32
f 103//103 91//91 99//99
f 26//26 37//37 48//48
f 18//18 19//19 103//103
f 77//77 81//81 43//43
f 1//1 100//100 79//79
f 87//87 92//92 49//49
f 97//97 68//68 11//11
f 96//96 22//22 51//51
f 34//34 19//19 18//18
f 34//34 51//51 19//19
f 108//108 9//9 44//44
f 72//72 44//44 80//80
f 76//76 99//99 86//86
f 61//61 66//66 42//42
f 16//16 96//96 34//34
f 66//66 41//41 38//38
f 101//101 17//17 60//60
f 22//22 3//3 51//51
f 53//53 50//50 89//89
f 36//36 16//16 46//46
f 35//35 54//54 36//36
f 72//72 97//97 90//90
f 107//107 18//18 102//102
f 90//90 57//57 72//72
f 13//13 2//2 82//82
f 50//50 27//27 89//89
f 31//31 7//7 24//24
f 27//27 63//63 89//89
f 63//63 66//66 61//61
f 72//72 76//76 86//86
f 52//52 66//66 63//63
f 91//91 54//54 35//35
f 71//71 88//88 78//78
f 30//30 76//76 2//2
f 95//95 88//88 71//71
f 59//59 93//93 67//67
f 11//11 31//31 109//109
f 74//74 92//92 87//87
f 82//82 73//73 77//77
f 105//105 15//15 10//10
f 3//3 83//83 5//5
f 82//82 77//77 43//43
f 77//77 109//109 81//81
f 58//58 84//84 86//86
f 15//15 79//79 29//29
f 96//96 51//51 34//34
f 48//48 64//64 13//13
f 39//39 1//1 79//79
f 15//15 23//23 28//28
f 62//62 64//64 48//48
f 44//44 106//106 12//12
f 60//60 33//33 59//59
f 101//101 69//69 17//17
f 80//80 44//44 12//12
f 29//29 60//60 59//59
f 23//23 59//59 67//67
f 91//91 35//35 58//58
f 32//32 109//109 77//77
f 30//30 107//107 102//102
f 44//44 9//9 106//106
f 25//25 4//4 87//87
f 38//38 46//46 8//8
f 63//63 61//61 62//62
f 109//109 31//31 55//55
f 75//75 22//22 96//96
f 26//26 48//48 43//43
f 70//70 88//88 98//98
f 43//43 48//48 13//13
f 10//10 27//27 105//105
f 64//64 107//107 13//13
f 105//105 39//39 15//15
f 109//109 55//55 81//81
f 69//69 85//85 17//17
f 37//37 67//67 53//53
f 77//77 80//80 12//12
f 46//46 16//16 107//107
f 6//6 25//25 33//33
f 3//3 22//22 47//47
f 7//7 63//63 27//27
f 61//61 42//42 64//64
f 37//37 62//62 48//48
f 54//54 21//21 104//104
f 81//81 28//28 26//26
f 36//36 104//104 16//16
f 64//64 8//8 107//107
f 53//53 87//87 50//50
f 29//29 101//101 60//60
f 38//38 41//41 84//84
f 58//58 46//46 84//84
f 20//20 70//70 94//94
f 57//57 98//98 14//14
f 26//26 67//67 37//37
f 10//10 15//15 24//24
f 19//19 5//5 103//103
f 92//92 45//45 100//100
f 107//107 30//30 2//2
f 39//39 79//79 15//15
f 68//68 7//7 31//31
f 16//16 34//34 18//18
f 40//40 45//45 74//74
f 58//58 36//36 46//46
f 24//24 7//7 10//10
f 78//78 88//88 70//70
f 97//97 11//11 90//90
f 23//23 15//15 29//29
f 94//94 57//57 90//90
f 81//81 55//55 28//28
f 47//47 21//21 54//54
f 89//89 63//63 53//53
f 29//29 59//59 23//23
f 33//33 25//25 87//87
f 16//16 18//18 107//107
f 78//78 70//70 20//20
f 31//31 24//24 55//55
f 50//50 39//39 105//105
f 87//87 49//49 39//39
f 82//82 76//76 73//73
f 108//108 44//44 72//72
f 15//15 55//55 24//24
f 40//40 4//4 25//25
f 76//76 72//72 73//73
f 21//21 22//22 56//56
f 86//86 91//91 58//58
f 60//60 6//6 33//33
f 84//84 97//97 72//72
f 90//90 32//32 94//94
f 42//42 66//66 8//8
f 12//12 32//32 77//77
f 5//5 83//83 91//91
f 56//56 75//75 16//16
f 52//52 41//41 66//66
f 81//81 26//26 43//43
f 2//2 76//76 82//82
f 4//4 74//74 87//87
f 35//35 36//36 58//58
f 65//65 45//45 85//85
f 66//66 38//38 8//8
f 87//87 39//39 50//50
f 12//12 20//20 32//32
f 23//23 67//67 26//26
f 63//63 62//62 53//53
f 91//91 47//47 54//54
f 49//49 1//1 39//39
f 95//95 71//71 108//108
f 13//13 107//107 2//2
f 72//72 14//14 108//108
f 107//107 8//8 46//46
f 100//100 45//45 65//65
f 75//75 96//96 16//16
f 6//6 40//40 25//25
f 74//74 45//45 92//92
f 41//41 52//52 68//68
f 79//79 101//101 29//29
f 79//79 65//65 101//101
f 94//94 98//98 57//57
f 64//64 42//42 8//8
f 41//41 68//68 97//97
f 103//103 5//5 91//91
f 86//86 84//84 72//72
f 41//41 97//97 84//84
f 83//83 47//47 91//91
f 93//93 53//53 67//67
f 85//85 40//40 6//6
f 65//65 69//69 101//101
f 62//62 61//61 64//64
f 10//10 7//7 27//27
f 59//59 33//33 93//93
f 7//7 52//52 63//63
f 28//28 23//23 26//26
f 49//49 92//92 1//1
f 65//65 85//85 69//69
f 20//20 94//94 32//32
f 80//80 77//77 73//73
f 9//9 78//78 20//20
f 3//3 47//47 83//83
f 105//105 27//27 50//50
f 32//32 11//11 109//109
f 17//17 6//6 60//60
f 93//93 87//87 53//53
f 56//56 22//22 75//75
f 40//40 74//74 4//4
f 47//47 22//22 21//21
f 100//100 65//65 79//79
f 72//72 80//80 73//73
f 76//76 102//102 99//99
f 11//11 68//68 31//31
f 55//55 15//15 28//28
f 99//99 91//91 86//86
f 19//19 3//3 5//5
f 104//104 56//56 16//16
f 102//102 103//103 99//99
f 85//85 45//45 40//40
f 43//43 13//13 82//82
f 57//57 14//14 72//72
f 14//14 95//95 108//108
f 9//9 20//20 106//106
f 17//17 85//85 6//6
f 54//54 104//104 36//36
f 108//108 71//71 78//78
f 68//68 52//52 7//7
f 92//92 100//100 1//1
# 214 faces, 0 coords texture

# End of File